<svg xmlns="http://www.w3.org/2000/svg" version="1.1" xmlns:xlink="http://www.w3.org/1999/xlink" xmlns:svgjs="http://svgjs.dev/svgjs" width="1440" height="5000" preserveAspectRatio="none" viewBox="0 0 1440 5000"><g mask="url(&quot;#SvgjsMask1074&quot;)" fill="none"><rect width="1440" height="5000" x="0" y="0" fill="rgba(231, 231, 231, 1)"></rect><path d="M0,1261.47C265.152,1238.642,545.367,1339.02,780.848,1215.023C1023.161,1087.428,1189.906,843.467,1282.953,585.905C1372.068,339.229,1336.497,72.505,1286.62,-184.988C1238.748,-432.128,1164.045,-675.581,1001.386,-867.706C837.614,-1061.146,619.573,-1213.05,371.647,-1265.712C132.367,-1316.538,-103.442,-1220.551,-338.34,-1152.279C-573.896,-1083.815,-814.217,-1026.549,-1000.469,-866.912C-1205.393,-691.271,-1360.108,-464.673,-1441.002,-207.185C-1531.45,80.712,-1589.122,395.032,-1486.032,678.648C-1379.681,971.235,-1162.14,1243.684,-872.317,1357.352C-594.359,1466.367,-297.471,1287.081,0,1261.47" fill="#d5d5d5"></path><path d="M1440 6383.165C1738.54 6424.179 2051.502 6503.166 2325.709 6378.191 2614.0699999999997 6246.765 2805.5370000000003 5971.246 2955.875 5692.277 3113.7870000000003 5399.252 3237.623 5077.486 3205.1949999999997 4746.203 3172.044 4407.534 3008.91 4090.355 2774.8869999999997 3843.3140000000003 2546.673 3602.406 2245.599 3406.893 1914.564 3383.782 1604.069 3362.105 1335.853 3570.047 1065.3220000000001 3723.9629999999997 849.657 3846.6639999999998 675.076 4009.4049999999997 502.158 4187.355 318.481 4376.377 86.5809999999999 4540.454 23.299999999999955 4796.309-42.138999999999896 5060.89 34.90000000000009 5342.217 156.15200000000004 5586.314 274.9960000000001 5825.563 471.02599999999995 6013.697 698 6154.5740000000005 922.437 6293.876 1178.304 6347.213 1440 6383.165" fill="#fafafa"></path></g><defs><mask id="SvgjsMask1074"><rect width="1440" height="5000" fill="#ffffff"></rect></mask></defs></svg>