<svg xmlns="http://www.w3.org/2000/svg" version="1.1" xmlns:xlink="http://www.w3.org/1999/xlink" xmlns:svgjs="http://svgjs.dev/svgjs" width="2560" height="2000" preserveAspectRatio="none" viewBox="0 0 2560 2000"><g mask="url(&quot;#SvgjsMask1108&quot;)" fill="none"><rect width="2560" height="2000" x="0" y="0" fill="rgba(21, 67, 96, 1)"></rect><path d="M0,894.882C198.62,922.444,408.889,1004.65,588.99,916.486C772.867,826.473,839.856,607.122,945.755,431.912C1066.148,232.721,1315.864,43.76,1251.695,-179.967C1185.064,-412.275,815.882,-387.186,658.273,-570.397C499.693,-754.736,580.507,-1121.058,357.911,-1218.932C143.644,-1313.144,-82.514,-1095.831,-289.898,-987.303C-461.233,-897.641,-619.856,-792.879,-742.277,-643.186C-862.087,-496.686,-940.449,-325.836,-981.877,-141.173C-1025.99,55.456,-1083.41,273.724,-987.774,451.101C-892.98,626.916,-674.738,684.55,-492.54,766.407C-334.57,837.379,-171.537,871.079,0,894.882" fill="#133e58"></path><path d="M2560 2715.197C2690.26 2695.631 2781.043 2587.161 2895.875 2522.632 3019.929 2452.921 3199.499 2448.427 3262.122 2320.648 3324.61 2193.145 3228.999 2046.742 3196.8869999999997 1908.429 3167.734 1782.863 3143.872 1660.594 3082.553 1547.2060000000001 3007.382 1408.205 2957.084 1205.286 2801.542 1177.382 2641.207 1148.618 2542.708 1364.783 2390.598 1423.0700000000002 2256.917 1474.295 2072.494 1388.219 1975.806 1493.7930000000001 1879.571 1598.873 1949.424 1768.987 1943.42 1911.349 1938.107 2037.332 1907.557 2160.835 1942.565 2281.973 1981.299 2416.003 2038.145 2554.182 2152.351 2634.315 2268.0969999999998 2715.529 2420.173 2736.2 2560 2715.197" fill="#174868"></path></g><defs><mask id="SvgjsMask1108"><rect width="2560" height="2000" fill="#ffffff"></rect></mask></defs></svg>