<svg xmlns="http://www.w3.org/2000/svg" version="1.1" xmlns:xlink="http://www.w3.org/1999/xlink" xmlns:svgjs="http://svgjs.dev/svgjs" width="1440" height="5000" preserveAspectRatio="none" viewBox="0 0 1440 5000"><g mask="url(&quot;#SvgjsMask1023&quot;)" fill="none"><rect width="1440" height="5000" x="0" y="0" fill="rgba(14, 42, 71, 1)"></rect><path d="M 0,187 C 96,330 288,926 480,902 C 672,878 768,119.2 960,67 C 1152,14.8 1344,526.2 1440,641L1440 5000L0 5000z" fill="rgba(255, 255, 255, 1)"></path><path d="M 0,1756 C 96,1846 288,2248 480,2206 C 672,2164 768,1589.8 960,1546 C 1152,1502.2 1344,1898.8 1440,1987L1440 5000L0 5000z" fill="rgba(14, 42, 71, 1)"></path><path d="M 0,2743 C 57.6,2916 172.8,3624.2 288,3608 C 403.2,3591.8 460.8,2647.4 576,2662 C 691.2,2676.6 748.8,3654.6 864,3681 C 979.2,3707.4 1036.8,2817.4 1152,2794 C 1267.2,2770.6 1382.4,3410 1440,3564L1440 5000L0 5000z" fill="rgba(255, 255, 255, 1)"></path><path d="M 0,3948 C 96,4129.2 288,4789.2 480,4854 C 672,4918.8 768,4345.2 960,4272 C 1152,4198.8 1344,4444.8 1440,4488L1440 5000L0 5000z" fill="rgba(14, 42, 71, 1)"></path></g><defs><mask id="SvgjsMask1023"><rect width="1440" height="5000" fill="#ffffff"></rect></mask></defs></svg>