<svg xmlns="http://www.w3.org/2000/svg" version="1.1" xmlns:xlink="http://www.w3.org/1999/xlink" xmlns:svgjs="http://svgjs.dev/svgjs" width="1440" height="5000" preserveAspectRatio="none" viewBox="0 0 1440 5000"><g mask="url(&quot;#SvgjsMask1119&quot;)" fill="none"><rect width="1440" height="5000" x="0" y="0" fill="rgba(16, 71, 129, 1)"></rect><path d="M 0,742 C 96,642 288,289.8 480,242 C 672,194.2 768,546.8 960,503 C 1152,459.2 1344,119 1440,23L1440 5000L0 5000z" fill="rgba(26, 98, 174, 1)"></path><path d="M 0,1525 C 96,1401.6 288,888.2 480,908 C 672,927.8 768,1565.4 960,1624 C 1152,1682.6 1344,1285.6 1440,1201L1440 5000L0 5000z" fill="rgba(59, 138, 222, 1)"></path><path d="M 0,1828 C 57.6,1944 172.8,2364.8 288,2408 C 403.2,2451.2 460.8,2033.4 576,2044 C 691.2,2054.6 748.8,2460.6 864,2461 C 979.2,2461.4 1036.8,2097.4 1152,2046 C 1267.2,1994.6 1382.4,2172.4 1440,2204L1440 5000L0 5000z" fill="rgba(16, 71, 129, 1)"></path><path d="M 0,3208 C 96,3126 288,2795.2 480,2798 C 672,2800.8 768,3225.6 960,3222 C 1152,3218.4 1344,2868.4 1440,2780L1440 5000L0 5000z" fill="rgba(59, 138, 222, 1)"></path><path d="M 0,3439 C 57.6,3527.6 172.8,3859.2 288,3882 C 403.2,3904.8 460.8,3555.4 576,3553 C 691.2,3550.6 748.8,3885.4 864,3870 C 979.2,3854.6 1036.8,3420.6 1152,3476 C 1267.2,3531.4 1382.4,4012.8 1440,4147L1440 5000L0 5000z" fill="#184a7e"></path><path d="M 0,4941 C 96,4791.6 288,4238.2 480,4194 C 672,4149.8 768,4703.6 960,4720 C 1152,4736.4 1344,4364.8 1440,4276L1440 5000L0 5000z" fill="rgba(59, 138, 222, 1)"></path></g><defs><mask id="SvgjsMask1119"><rect width="1440" height="5000" fill="#ffffff"></rect></mask></defs></svg>